<svg width="24" height="24" viewBox="0 0 24 24" fill="none" xmlns="http://www.w3.org/2000/svg" preserveAspectRatio="xMinYMid meet"><path d="M13 4.855v-.4c0-.8-.7-1.5-1.5-1.5h-7c-.8 0-1.5.7-1.5 1.5v4.3c0 .8.7 1.5 1.5 1.5h4.4l2.2 2.2v-2.3h.4c.8 0 1.5-.7 1.5-1.5v-3.8z" fill="none" stroke="#212529" stroke-linecap="round" stroke-linejoin="round"/><g fill="none" stroke="#212529" stroke-linecap="round" stroke-miterlimit="10"><path d="M7.28 17.785v.9c0 1.3 1.07 2.37 2.37 2.37h9.03c1.28 0 2.31-1.04 2.31-2.31v-9.87c0-.62-.23-1.24-.68-1.69l-3.5-3.56c-.45-.45-1.02-.68-1.69-.68"/><path d="M14.25 2.955h1.22c.56 0 1.02.45 1.02 1.02v2.99c0 .4.33.73.73.73h2.82c.56 0 .96.46.96 1.02v9.97c0 1.3-1 2.36-2.31 2.36H9.64c-1.3 0-2.36-1.06-2.36-2.36v-6.25"/></g><path d="M8.8 14.995h1.79c.29 0 .52.04.7.13.18.08.32.19.42.31.1.12.17.26.2.41.04.15.05.28.05.41s-.02.26-.05.41c-.04.15-.1.28-.2.41-.1.13-.24.23-.42.31s-.42.12-.7.12H9.51v1.56H8.8v-4.07zm.71 1.92h1.04c.08 0 .16-.01.24-.03s.16-.06.23-.11.13-.12.17-.2.07-.19.07-.32-.02-.24-.06-.33a.57.57 0 0 0-.15-.21c-.06-.05-.14-.09-.22-.11s-.17-.03-.27-.03H9.51v1.34zM12.59 14.995h1.68c.31 0 .58.05.81.16s.41.25.56.43c.14.18.25.4.32.64.07.25.1.51.1.79s-.04.54-.1.79c-.07.25-.18.46-.32.64s-.33.33-.56.43c-.23.11-.5.16-.81.16h-1.68v-4.06.02zm.71 3.47h.7c.28 0 .5-.04.68-.11s.31-.18.41-.31.17-.28.2-.46.05-.37.05-.57-.02-.39-.05-.57-.1-.33-.2-.46-.24-.23-.41-.31c-.18-.07-.4-.11-.68-.11h-.7v2.9zm3.39-3.47h2.8v.61H17.4v1.06h1.84v.58H17.4v1.8h-.71v-4.06.01z" fill="#212529"/></svg>